<?xml version="1.0" standalone="no"?>
<!DOCTYPE svg PUBLIC "-//W3C//DTD SVG 20010904//EN"
 "http://www.w3.org/TR/2001/REC-SVG-20010904/DTD/svg10.dtd">
<svg version="1.0" xmlns="http://www.w3.org/2000/svg"
 width="306.000000pt" height="306.000000pt" viewBox="0 0 306.000000 306.000000"
 preserveAspectRatio="xMidYMid meet">
<metadata>
Created by potrace 1.11, written by Peter Selinger 2001-2013
</metadata>
<g transform="translate(0.000000,306.000000) scale(0.100000,-0.100000)"
fill="#000000" stroke="none">
<path d="M1285 2863 c-44 -8 -127 -30 -185 -49 -458 -153 -801 -540 -901
-1017 -28 -134 -31 -388 -5 -520 105 -542 516 -961 1061 -1083 109 -24 360
-30 482 -10 569 90 1018 525 1130 1093 25 132 23 386 -6 520 -101 478 -444
865 -901 1017 -58 19 -145 42 -195 50 -113 20 -369 19 -480 -1z m461 -58 c478
-83 869 -421 1017 -880 48 -147 60 -229 60 -395 0 -121 -5 -177 -22 -257 -54
-255 -160 -458 -337 -643 -190 -198 -428 -328 -699 -381 -93 -18 -377 -18
-470 0 -271 53 -508 183 -699 382 -357 371 -458 888 -270 1376 156 406 539
718 979 797 109 19 331 20 441 1z"/>
<path d="M1312 2754 c-46 -8 -90 -18 -98 -22 -11 -6 57 -65 257 -223 150 -118
281 -220 292 -228 17 -12 22 -11 42 10 l24 24 -165 225 -165 225 -52 2 c-29 1
-90 -5 -135 -13z"/>
<path d="M1580 2739 c49 -69 273 -374 281 -383 10 -12 89 23 88 38 0 6 -24 85
-52 176 l-52 165 -60 12 c-33 7 -98 16 -144 19 l-85 7 24 -34z"/>
<path d="M1050 2676 c-120 -53 -151 -69 -147 -79 2 -8 420 -213 724 -357 95
-45 104 -47 113 -31 8 16 -32 51 -298 260 -169 132 -309 241 -312 241 -3 0
-39 -15 -80 -34z"/>
<path d="M1915 2683 c3 -16 24 -86 46 -156 38 -120 42 -129 62 -123 12 3 34 6
50 6 l27 0 0 113 0 114 -27 13 c-46 21 -146 60 -156 60 -5 0 -6 -12 -2 -27z"/>
<path d="M2150 2506 c0 -99 3 -106 50 -106 15 0 24 15 40 66 11 36 20 67 20
69 0 5 -96 65 -103 65 -4 0 -7 -42 -7 -94z"/>
<path d="M769 2511 c-35 -27 -74 -59 -86 -72 l-22 -24 370 -104 c203 -58 367
-106 365 -108 -2 -2 -61 4 -132 12 -94 12 -196 35 -376 85 -136 39 -254 70
-262 70 -8 0 -36 -25 -61 -57 -51 -62 -48 -73 18 -73 l37 0 0 -65 0 -65 -32 1
c-18 0 -58 4 -88 9 -50 7 -57 6 -72 -14 -10 -11 -18 -24 -18 -27 0 -4 30 -10
68 -13 104 -11 106 -12 83 -44 -11 -15 -35 -44 -53 -64 l-33 -37 -60 9 c-62 9
-75 4 -75 -32 0 -12 14 -18 60 -23 l60 -7 0 -70 c0 -61 -2 -69 -17 -64 -10 2
-46 8 -80 11 l-63 7 0 -30 c0 -30 0 -30 75 -37 l75 -7 -45 -56 c-124 -154
-123 -154 -117 -194 l7 -37 109 139 c60 77 110 140 111 140 16 0 229 -31 232
-34 9 -8 -269 -351 -287 -354 -10 -2 -48 1 -84 6 l-66 9 0 -28 c0 -30 5 -32
108 -44 l52 -7 0 -174 c0 -170 1 -176 25 -212 l25 -37 0 208 0 207 28 -1 c15
0 68 -6 117 -12 l90 -12 3 -322 2 -322 69 -45 c38 -25 78 -46 90 -46 12 0 20
-4 16 -9 -14 -24 44 -35 195 -37 167 -2 188 -6 352 -67 155 -59 236 -59 420
-1 92 29 234 92 226 100 -3 2 -40 -9 -83 -26 -112 -44 -187 -60 -296 -60 -122
0 -185 12 -313 60 -57 21 -135 44 -172 51 l-69 12 40 14 c60 22 91 18 226 -33
115 -43 132 -47 241 -52 140 -6 198 4 342 58 58 22 127 43 153 47 56 7 91 23
118 53 l20 23 -75 -7 c-42 -4 -112 -20 -160 -37 -189 -68 -203 -71 -321 -76
-128 -6 -221 9 -326 52 l-58 23 30 12 c25 10 42 8 105 -12 64 -20 95 -23 220
-22 143 0 146 1 245 38 146 56 189 66 302 73 90 5 105 9 124 29 20 21 20 24 5
30 -9 4 -65 4 -124 2 -88 -4 -123 -11 -197 -37 -210 -76 -202 -74 -340 -75
-71 0 -158 2 -193 4 l-62 5 2 149 3 149 68 23 67 23 0 -156 0 -156 123 5 c114
5 129 8 242 51 149 55 244 72 375 64 90 -6 99 -4 116 14 24 27 10 36 -75 45
-122 13 -236 -1 -346 -41 -119 -43 -193 -65 -220 -64 -11 0 86 36 215 80 256
86 287 91 410 65 58 -13 66 -13 78 2 17 22 15 27 -12 40 -51 23 -91 24 -146 3
-30 -12 -56 -21 -58 -21 -1 0 -1 69 0 152 l3 153 60 22 c33 12 63 22 67 22 4
1 9 -65 10 -146 2 -108 6 -147 15 -146 30 6 70 6 89 0 18 -6 25 2 57 70 89
189 121 334 121 543 -1 174 -10 208 -64 244 -22 15 -40 28 -40 30 0 2 16 -1
35 -7 42 -13 47 -9 36 29 -7 28 -10 29 -95 42 l-88 12 -157 109 -156 108 -291
35 -292 35 -406 197 c-223 108 -410 196 -415 196 -4 0 -37 -22 -72 -49z m64
-302 l107 -12 0 -63 c0 -74 8 -71 -131 -54 -140 18 -129 11 -129 86 0 63 1 66
23 61 12 -3 70 -11 130 -18z m335 -40 l102 -12 0 -67 0 -66 -132 17 c-73 10
-134 18 -135 18 -2 1 -3 31 -3 67 l0 66 33 -5 c17 -4 78 -11 135 -18z m325
-40 l97 -11 0 -67 0 -67 -132 17 c-73 10 -134 18 -135 18 -2 1 -3 31 -3 67 l0
67 38 -6 c20 -3 81 -11 135 -18z m292 -34 c65 -8 123 -15 127 -15 4 0 8 -31 8
-69 l0 -70 -32 5 c-18 3 -78 10 -133 17 l-100 12 -3 68 c-2 37 1 67 5 67 4 0
62 -7 128 -15z m330 -40 c65 -8 123 -15 127 -15 4 0 8 -32 8 -70 l0 -70 -37 5
c-21 4 -83 11 -138 18 l-100 12 -3 68 c-2 50 0 67 10 67 7 0 67 -7 133 -15z
m-1323 -29 c54 -7 100 -15 102 -17 3 -3 -16 -30 -41 -62 -37 -45 -52 -57 -75
-57 -34 0 -221 22 -227 26 -2 2 19 30 45 63 56 68 50 67 196 47z m326 -40 c57
-8 106 -16 108 -19 3 -2 -16 -30 -41 -61 -34 -41 -53 -56 -71 -56 -31 0 -214
20 -232 26 -22 6 85 124 111 124 12 0 68 -7 125 -14z m322 -41 c62 -8 115 -17
118 -20 4 -4 -32 -50 -99 -129 -5 -5 -22 -2 -41 7 -18 8 -70 18 -116 22 -45 4
-84 11 -87 15 -7 11 83 120 99 120 7 0 63 -7 126 -15z m320 -40 c58 -8 111
-15 118 -15 10 0 -193 -260 -204 -260 -7 0 -163 111 -169 120 -6 10 124 170
139 170 6 0 58 -7 116 -15z m330 -41 c69 -9 127 -18 129 -19 4 -4 -285 -356
-303 -369 -8 -6 -40 11 -97 50 -47 33 -86 63 -88 68 -4 8 218 286 228 286 3 0
62 -7 131 -16z m-1445 -19 c66 -8 123 -15 128 -15 4 0 7 -29 7 -65 0 -76 13
-71 -152 -53 l-108 12 0 68 c0 37 1 68 3 68 1 0 57 -7 122 -15z m309 -36 c148
-17 136 -10 136 -84 0 -58 -2 -65 -19 -65 -20 0 -150 16 -208 26 l-33 5 0 64
c0 75 -11 70 124 54z m356 -42 l95 -12 3 -67 c2 -38 -1 -68 -5 -68 -5 0 -63 7
-128 15 -66 8 -121 15 -122 15 -2 0 -3 29 -3 65 l0 65 33 -1 c17 0 75 -6 127
-12z m-327 -154 c37 -3 70 -9 72 -13 3 -5 -149 -200 -261 -333 l-23 -28 -111
15 c-62 8 -113 16 -115 18 -2 1 60 83 137 182 l141 178 46 -6 c25 -3 77 -9
114 -13z m290 -35 c59 -6 107 -14 107 -18 0 -3 -66 -86 -146 -184 -133 -161
-149 -177 -173 -172 -14 3 -70 10 -124 17 -89 10 -96 13 -84 28 7 9 62 77 122
151 135 169 155 190 174 190 9 0 64 -5 124 -12z m-225 -428 l22 0 0 -330 0
-330 -22 1 c-13 0 -68 6 -123 12 l-100 12 -3 331 -2 330 102 -13 c57 -7 113
-12 126 -13z"/>
<path d="M2286 2453 c-22 -65 -20 -76 19 -95 l34 -17 25 34 c14 18 26 38 26
43 0 9 -75 82 -84 82 -2 0 -11 -21 -20 -47z"/>
<path d="M2407 2348 l-26 -33 26 -27 25 -27 34 22 c19 12 34 24 34 28 0 3 -15
20 -34 38 l-33 32 -26 -33z"/>
<path d="M2488 2239 l-27 -20 21 -34 c11 -19 26 -35 32 -35 17 0 76 21 76 26
0 13 -54 84 -64 84 -6 0 -23 -10 -38 -21z"/>
<path d="M2563 2113 c-33 -11 -43 -20 -43 -36 0 -43 13 -49 79 -41 33 3 61 8
61 11 0 11 -41 83 -48 82 -4 0 -26 -7 -49 -16z"/>
<path d="M2558 1983 c-21 -3 -28 -10 -28 -27 0 -22 6 -24 87 -35 48 -6 88 -9
91 -7 2 3 -1 21 -8 40 -11 35 -12 36 -63 35 -29 -1 -64 -4 -79 -6z"/>
<path d="M1121 350 c44 -26 331 -82 345 -67 8 8 -134 56 -198 67 -81 13 -169
13 -147 0z"/>
</g>
</svg>
