<?xml version="1.0" encoding="UTF-8" standalone="no"?>
<svg width="40px" height="40px" viewBox="0 0 40 40" version="1.1" xmlns="http://www.w3.org/2000/svg" xmlns:xlink="http://www.w3.org/1999/xlink">
    <!-- Generator: Sketch 47.1 (45422) - http://www.bohemiancoding.com/sketch -->
    <title>Page 1</title>
    <desc>Created with Sketch.</desc>
    <defs>
        <polygon id="path-1" points="2.14691955e-20 0.189912825 2.14691955e-20 39.339651 39.1498174 39.339651 39.1498174 0.189912825"></polygon>
    </defs>
    <g id="Welcome" stroke="none" stroke-width="1" fill="none" fill-rule="evenodd">
        <g id="Page-1">
            <path d="M27.7137544,7.05246411 L27.8423343,3.89024264 C26.9340901,3.41763878 25.9806976,3.02001788 24.9900776,2.70635677 L26.3785825,7.22302394 C26.8081504,7.11979036 27.2548798,7.06144095 27.7137544,7.05246411" id="Fill-1" fill="#0994A1"></path>
            <path d="M25.6466802,7.44733916 L24.1111137,2.45225959 C22.7862387,2.10638749 21.4024863,1.90836911 19.9783381,1.87695019 L24.48154,8.03347356 C24.8458939,7.79954785 25.235594,7.60205752 25.6466802,7.44733916" id="Fill-3" fill="#0994A1"></path>
            <path d="M23.8632211,8.48487625 L19.0326287,1.88056733 C17.5651806,1.9243954 16.1412964,2.14511988 14.7818342,2.52188285 L23.1933909,9.13305641 C23.4001221,8.90097887 23.6237508,8.68395073 23.8632211,8.48487625" id="Fill-5" fill="#0994A1"></path>
            <path d="M14.0871066,36.6974786 C13.8449961,36.6974786 13.6189911,36.7035511 13.4040752,36.7143761 C15.1051851,37.338266 16.9264261,37.7105406 18.821858,37.7892199 C18.6145988,37.7097485 18.4149962,37.6276369 18.2164498,37.5463173 C17.1532231,37.1098848 16.1491379,36.6974786 14.0871066,36.6974786" id="Fill-7" fill="#0994A1"></path>
            <path d="M22.7199686,9.73474185 L13.889405,2.79432973 C12.6582588,3.20594393 11.48599,3.74798624 10.3889682,4.40355908 L22.4155483,10.2218671 C22.509541,10.0544755 22.6111905,9.89183643 22.7199686,9.73474185" id="Fill-9" fill="#0994A1"></path>
            <path d="M32.0631885,6.93462998 C31.6418054,6.52671212 31.2008844,6.13938817 30.7417458,5.77397826 L30.1915188,7.51178754 C30.5616811,7.66307358 30.9136258,7.84894683 31.2436564,8.06571095 L32.0631885,6.93462998 Z" id="Fill-11" fill="#0994A1"></path>
            <path d="M34.0199005,13.9555168 L36.6625217,14.2852834 C36.5347339,13.893207 36.3940088,13.5069391 36.2406106,13.1272719 L34.057656,13.3023201 C34.0565999,13.5230446 34.0436627,13.7408648 34.0199005,13.9555168" id="Fill-13" fill="#0994A1"></path>
            <path d="M34.0142503,12.5382068 L35.9215633,12.3850726 C35.7285614,11.9636895 35.519454,11.5515473 35.2958253,11.1483818 L33.8368259,11.6252101 C33.9178814,11.9214456 33.9775509,12.2261299 34.0142503,12.5382068" id="Fill-15" fill="#0994A1"></path>
            <path d="M32.5876203,9.25529975 L33.5386366,8.54612994 C33.2421371,8.18072002 32.9327004,7.82639914 32.6090063,7.48527948 L31.8565365,8.52368785 C32.1200329,8.74705258 32.3645196,8.99153927 32.5876203,9.25529975" id="Fill-17" fill="#0994A1"></path>
            <path d="M33.590095,10.9008061 L34.9015047,10.4717662 C34.6226948,10.0179081 34.3246111,9.57698721 34.0083098,9.15085166 L33.0454124,9.86873428 C33.2574241,10.1932204 33.4406571,10.5380364 33.590095,10.9008061" id="Fill-19" fill="#0994A1"></path>
            <path d="M30.0943577,5.28254945 C29.6109289,4.93218894 29.1095464,4.60506258 28.5915303,4.30328257 L28.4782638,7.08214047 C28.8164792,7.11672768 29.1462458,7.17956551 29.4662435,7.26616555 L30.0943577,5.28254945 Z" id="Fill-21" fill="#0994A1"></path>
            <path d="M29.924194,14.4615197 L25.9326715,13.9609293 L25.9326715,11.9350693 L29.924194,12.4179701 L29.924194,14.4615197 Z M25.0510937,20.7738175 L22.3041828,18.8583198 L25.6834324,14.701254 L29.6564731,15.1994682 L25.0510937,20.7738175 Z M19.0514009,16.5903493 L21.0585152,14.1211921 L24.7886533,14.5890436 L21.6747484,18.419511 L19.0514009,16.5903493 Z M18.4222305,16.1512765 L17.8374162,15.7436227 L17.8374162,15.7417745 L17.8342479,15.7415105 L17.8326638,15.7401904 L17.8326638,15.7412465 L14.7850289,15.3779488 L16.2923448,13.5237047 L20.1634721,14.0089817 L18.4222305,16.1512765 Z M17.8326638,18.5330416 L14.0293908,18.0757511 L14.0293908,16.0681088 L17.8326638,16.5217029 L17.8326638,18.5330416 Z M13.2291325,24.5438234 L9.56156817,24.0989421 L13.8490621,18.8250527 L17.5831606,19.2738943 L13.2291325,24.5438234 Z M12.9592995,34.8452675 L9.32473819,34.4228283 L9.29437538,24.8469236 L12.9592995,25.2915408 L12.9592995,34.8452675 Z M5.20621997,23.5706291 L9.36645407,18.2859146 L12.9505867,18.7170667 L8.66388486,23.9899 L5.20621997,23.5706291 Z M4.97255829,16.9869141 L4.97255829,14.9879846 L8.751541,15.4386744 L8.751541,17.4413003 L4.97255829,16.9869141 Z M6.89386459,12.3450993 L10.6298113,12.8134788 L9.05490515,14.6946534 L5.34377674,14.2521483 L6.89386459,12.3450993 Z M7.24501718,9.67475548 L11.1512597,10.1473593 L11.1512597,12.1074773 L7.24501718,11.6177118 L7.24501718,9.67475548 Z M13.2639838,15.9767563 L13.2639838,17.9838706 L9.51694803,17.5334448 L9.51694803,15.5297629 L13.2639838,15.9767563 Z M15.3973018,13.4112302 L13.8860255,15.2704908 L9.96262139,14.8026394 L11.5333032,12.9270093 L15.3973018,13.4112302 Z M11.9166667,10.2397679 L15.8231733,10.7123718 L15.8231733,12.6933476 L11.9166667,12.2033181 L11.9166667,10.2397679 Z M16.5885803,10.8047804 L20.4950869,11.2773842 L20.4950869,13.279218 L16.5885803,12.7894525 L16.5885803,10.8047804 Z M21.2607579,11.3700568 L25.1670005,11.8423966 L25.1670005,13.8650884 L21.2607579,13.3750589 L21.2607579,11.3700568 Z M37.3068471,16.9378055 L37.1426239,16.8863208 L37.1426239,16.6774774 L35.5986086,15.6005214 L37.1463202,16.0857985 C37.0747696,15.7491672 36.993186,15.4159683 36.9031536,15.0867297 L34.4165709,14.7762369 L29.924194,11.6438502 L29.924194,11.6462264 L21.4886111,10.6236595 L9.62678223,4.88508697 C8.69952817,5.50343235 7.8335278,6.20626558 7.03855002,6.98144152 L18.707641,10.2865003 L13.7970493,9.691125 L6.42970952,7.60453935 C6.10575145,7.95252364 5.79499461,8.31265307 5.49928717,8.68545567 C5.31420599,8.91832528 5.13440531,9.15621135 4.96094121,9.39858585 L6.47934612,9.58208288 L6.47934612,11.5216069 L3.83118036,11.1894641 C3.69969616,11.4276142 3.57375647,11.6691966 3.45309727,11.9136833 L5.99908555,12.2328889 L4.4447733,14.1449543 L2.60848288,13.925814 C2.52188285,14.173733 2.4405633,14.4242923 2.36452424,14.6769637 L4.20715125,14.8966321 L4.20715125,16.8947695 L1.89772892,16.6172798 C1.85205268,16.867575 1.81244901,17.1199824 1.7778618,17.37371 L4.0191658,17.643015 L1.62789588,20.6803529 C1.64584955,21.0587 1.67515627,21.4341428 1.71581604,21.8061533 L4.90892838,17.7502089 L8.47669149,18.1792487 L4.31724947,23.4629071 L1.91911491,23.1719521 C1.96954359,23.4409931 2.02578081,23.7081859 2.08835461,23.9727384 L4.25097932,24.2351788 L4.26708481,29.2358029 C4.50893126,29.6284073 4.7658271,30.0107148 5.03618819,30.3827253 L5.0169144,24.3281154 L8.52844029,24.7539869 L8.55827506,34.0223031 C9.16737959,34.4962271 9.80763901,34.9318675 10.475357,35.325528 L11.3894098,35.4316659 C11.2259786,35.4778702 11.0702042,35.5275068 10.9194462,35.5792556 C11.2603018,35.7675051 11.6077581,35.9446655 11.9615509,36.1107369 C12.5492695,36.0016948 13.2373173,35.9335765 14.0872122,35.9335765 C16.2994735,35.9335765 17.4215776,36.3940352 18.5067183,36.8394445 C19.4215632,37.2151514 20.2944283,37.5721125 21.8334271,37.6645211 C24.2347299,37.361949 26.4900272,36.5841328 28.5016299,35.4277055 C27.9696206,35.5763513 27.5181387,35.7616965 27.0558318,35.9515301 C25.970427,36.3969395 24.8485869,36.8573982 22.6357975,36.8573982 C20.4232722,36.8573982 19.3014321,36.3969395 18.2162914,35.9515301 C17.2190708,35.5417641 16.2733351,35.1536481 14.4576386,35.1071798 L16.2068009,34.5147088 C17.1522726,34.689229 17.8368882,34.969623 18.5067183,35.2447365 C19.569681,35.681169 20.5740302,36.0935753 22.6357975,36.0935753 C24.6978289,36.0935753 25.7024422,35.681169 26.7656688,35.2447365 C27.6601838,34.8774785 28.5813653,34.5004515 30.1166678,34.3792642 C30.4963351,34.1030946 30.8651773,33.8124036 31.2218744,33.5079834 C31.2094652,33.5079834 31.1981122,33.5074553 31.185439,33.5074553 C29.1236717,33.5074553 28.1190584,33.9198616 27.0558318,34.3565581 C25.970427,34.8019674 24.8485869,35.2626902 22.6357975,35.2626902 C20.4232722,35.2626902 19.3014321,34.8019674 18.2162914,34.3565581 C17.9810456,34.2596611 17.7479119,34.1646123 17.5060655,34.0745799 L18.621041,33.6967609 C19.6436079,34.1152397 20.6482211,34.4986033 22.6357975,34.4986033 C24.6978289,34.4986033 25.7024422,34.086197 26.7656688,33.6497645 C27.8505455,33.2043552 28.9726496,32.7436324 31.185439,32.7436324 C31.4895952,32.7436324 31.7710454,32.7528733 32.036654,32.7689788 C32.2906456,32.5244921 32.5369804,32.2720847 32.7761866,32.0130766 C32.3196883,31.9499748 31.8003521,31.9127473 31.185439,31.9127473 C29.1236717,31.9127473 28.1190584,32.3251536 27.0558318,32.7615861 C25.970427,33.2069954 24.8485869,33.6677182 22.6357975,33.6677182 C21.4611525,33.6677182 20.5956802,33.5372901 19.8783256,33.3487766 L19.2842705,33.557884 L19.2842705,33.471812 L19.2842705,29.1286089 L21.3571269,28.3993732 L21.3571269,32.7697708 L21.3571269,32.8283843 L21.3296683,32.8381532 C21.7156722,32.879605 22.144976,32.9036313 22.6357975,32.9036313 C24.6978289,32.9036313 25.7024422,32.491225 26.7656688,32.0547925 C27.8505455,31.6093832 28.9726496,31.1486604 31.185439,31.1486604 C32.0641126,31.1486604 32.768794,31.2220592 33.3697137,31.3374379 C33.555851,31.1146012 33.7364438,30.8870121 33.9120201,30.6551986 C33.2118271,30.455332 32.3751334,30.3177753 31.185439,30.3177753 C29.1236717,30.3177753 28.1190584,30.7301816 27.0558318,31.1666141 C26.1203929,31.5507697 25.1556474,31.9452223 23.4909729,32.0468718 L30.8363986,29.5584408 C30.9501932,29.5555365 31.0655719,29.5539524 31.185439,29.5539524 C32.6109073,29.5539524 33.5822534,29.7453702 34.3843599,30.0004178 C34.5279892,29.7915744 34.6671301,29.5798268 34.8023107,29.3649109 C34.3038324,29.1703248 33.7797438,28.9944845 33.1173063,28.8762015 L31.4172525,29.474217 L31.4172525,29.3614785 L31.4172525,25.0449419 L33.4903729,24.3157063 L33.4903729,28.6591734 L34.5271971,28.4513861 C34.762707,28.5305934 34.9847516,28.6145532 35.2001956,28.7003612 C35.3422408,28.450858 35.4782134,28.1981866 35.6083775,27.9415548 C36.2958973,26.5871091 36.8160256,25.1341822 37.1426239,23.6102328 C37.4034801,22.3936079 37.542357,21.1323628 37.542357,19.8389068 C37.542357,18.8511911 37.4607734,17.8824852 37.3068471,16.9378055 L37.3068471,16.9378055 Z" id="Fill-23" fill="#0994A1"></path>
            <g id="Group-27" transform="translate(0.000000, 0.074191)">
                <mask id="mask-2" fill="white">
                    <use xlink:href="#path-1"></use>
                </mask>
                <g id="Clip-26"></g>
                <path d="M19.5748823,38.508053 C9.2396431,38.508053 0.83151877,30.0999287 0.83151877,19.7646895 C0.83151877,9.42971434 9.2396431,1.02159001 19.5748823,1.02159001 C29.9101214,1.02159001 38.3182458,9.42971434 38.3182458,19.7646895 C38.3182458,30.0999287 29.9101214,38.508053 19.5748823,38.508053 M19.5748823,0.189912825 C8.76413497,0.189912825 -0.000158414702,8.95367816 -0.000158414702,19.7646895 C-0.000158414702,30.5757008 8.76413497,39.3397302 19.5748823,39.3397302 C30.3856296,39.3397302 39.149923,30.5757008 39.149923,19.7646895 C39.149923,8.95367816 30.3856296,0.189912825 19.5748823,0.189912825" id="Fill-25" fill="#0994A1" mask="url(#mask-2)"></path>
            </g>
        </g>
    </g>
</svg>