<?xml version="1.0" encoding="UTF-8" standalone="no"?>
<svg width="191px" height="33px" viewBox="0 0 191 33" version="1.1" xmlns="http://www.w3.org/2000/svg" xmlns:xlink="http://www.w3.org/1999/xlink">
    <!-- Generator: Sketch 47.1 (45422) - http://www.bohemiancoding.com/sketch -->
    <title>Group 17</title>
    <desc>Created with Sketch.</desc>
    <defs></defs>
    <g id="Welcome" stroke="none" stroke-width="1" fill="none" fill-rule="evenodd">
        <g id="Group-17" transform="translate(0.161144, 0.000000)" fill="#002053">
            <path d="M30.8981206,14.8640306 L25.4134474,15.3267835 L28.2846186,7.18887695 L30.9781675,14.8570192 L30.8981206,14.8640306 Z M38.177714,20.6881728 C37.1458686,20.6706443 36.3418939,19.7521499 35.7208001,17.8777671 L29.7126085,0.243493909 L28.7871028,0.248752464 L20.0146639,24.6846749 L22.1461316,24.4048029 L24.5849328,17.5920523 L24.6240798,17.5885466 L31.6956681,16.9049344 L32.2600864,18.552615 C32.8502132,20.2569713 33.6220522,21.3741221 34.5563222,21.871932 C35.4590409,22.353382 36.4704364,22.52633 37.5601259,22.3820119 C38.0824757,22.3136507 38.4903059,22.2043896 38.8081564,22.0472172 L38.9676659,21.9689232 L38.3541678,20.6905099 L38.177714,20.6881728 Z" id="Fill-1"></path>
            <path d="M41.2491778,3.66395044 C40.6911866,2.75188323 39.9999787,1.96894277 39.1930826,1.33324186 C38.3628152,0.678259579 37.4127695,0.346386308 36.3709913,0.346386308 L32.8594449,0.346386308 L32.8594449,1.28708343 L33.0125273,1.29993768 C33.6359582,1.35310751 34.7758961,1.6954979 35.4746997,2.31776028 C36.1822676,2.94878692 36.8390027,3.69374892 37.426208,4.53102779 L42.5346024,12.1833944 L42.5346024,21.3741806 L45.8802122,20.8979891 L45.8802122,11.1013005 L45.9018307,11.0639064 L51.8042669,0.346386308 L49.9234569,0.346386308 L44.8986152,9.32507741 L41.2491778,3.66395044 Z" id="Fill-3"></path>
            <path d="M66.943414,0.180800243 L55.4102336,0.180800243 C53.9074553,0.180800243 53.1134135,0.935110793 53.1134135,2.36193214 L53.1134135,4.66284225 L54.3474211,4.66284225 L54.3474211,4.40458875 C54.3474211,3.45688022 54.5589319,2.77618945 54.9761106,2.38004494 C55.3956265,1.98039474 56.0260689,1.77764822 56.8499092,1.77764822 L59.0684353,1.77764822 L59.0684353,19.3914715 L61.9290894,19.0823853 L61.9290894,1.77764822 L66.943414,1.77764822 L66.943414,0.180800243 Z" id="Fill-5"></path>
            <path d="M77.0011607,13.9288258 C76.347347,15.1540692 75.4463812,15.7874329 74.2410034,15.8604684 C73.0251086,15.9346725 72.1042771,15.4029741 71.4323506,14.2303163 C70.7434798,13.0290285 70.3929095,11.249884 70.3929095,8.94488386 C70.3929095,6.64046805 70.7434798,4.83736785 71.4323506,3.58992167 C72.1042771,2.37227397 73.0251086,1.7786415 74.2410034,1.77104581 C75.4463812,1.7640344 76.347347,2.33663265 77.0011607,3.51805475 C77.6637387,4.71466823 77.9985333,6.4534972 77.9985333,8.69013607 C77.9985333,10.9267749 77.6637387,12.6878067 77.0011607,13.9288258 M77.9430264,1.30303438 C76.8807982,0.56040951 75.6368577,0.180624958 74.2410034,0.180624958 C72.830542,0.180624958 71.5433645,0.568005202 70.4192022,1.33633857 C69.2856914,2.11168334 68.3923213,3.19144003 67.7688904,4.54464161 C67.1454594,5.89842747 66.8281932,7.4204871 66.8281932,9.06466207 C66.8281932,10.708837 67.1454594,12.2098624 67.7688904,13.5209956 L67.7688904,13.5209956 C68.3923213,14.832713 69.2856914,15.8528727 70.4192022,16.5522606 C71.5433645,17.2452213 72.830542,17.5455433 74.2410034,17.4514736 C75.6368577,17.3579881 76.8807982,16.8952353 77.9430264,16.0801592 C78.995906,15.2732631 79.8150721,14.1981806 80.3835803,12.8835418 C80.9462458,11.5823415 81.230792,10.1362388 81.230792,8.58204354 C81.230792,7.02726401 80.9462458,5.60044266 80.3835803,4.33663653 C79.8150721,3.06056043 78.995906,2.0404007 77.9430264,1.30303438" id="Fill-7"></path>
            <path d="M93.5317215,9.4565413 L86.832322,1.5243027 C86.4788303,1.06096555 86.0371116,0.717990886 85.5165146,0.501805833 C85.0040976,0.289126483 84.3415197,0.181033957 83.5468935,0.181033957 L81.8828529,0.181033957 L81.8828529,1.26079065 L82.2065462,1.26079065 C82.8095272,1.26079065 83.2354702,1.40335593 83.4709366,1.68556507 C83.7169201,1.97829132 83.8413726,2.39547004 83.8413726,2.92483128 L83.8413726,15.7784934 L85.3143524,15.4688229 L85.3143524,4.48136366 L93.7332995,14.5503286 L95.0047013,14.5503286 L95.0047013,0.181033957 L93.5317215,0.181033957 L93.5317215,9.4565413 Z" id="Fill-9"></path>
            <path d="M117.935859,0.684043989 L113.438625,11.3139215 L110.413203,3.44770696 C109.959215,2.24758778 109.357402,1.43660169 108.627047,1.03695148 C107.917142,0.649571238 107.083954,0.453836122 106.153773,0.453836122 L105.101478,0.508758811 L105.101478,1.38401613 L105.289033,1.41089319 C105.658885,1.46464732 105.970308,1.63817964 106.240248,1.94200728 C106.522457,2.25868917 106.816351,2.81609604 107.114336,3.59728365 L111.874497,15.6884552 L112.998075,15.7439622 L119.56718,0.685212557 L117.935859,0.684043989 Z" id="Fill-11"></path>
            <path d="M121.109455,11.0031408 L123.178405,5.74925978 L125.201196,11.3233284 L121.109455,11.0031408 Z M129.684406,14.6712753 L124.580102,0.636191136 L123.545919,0.66365248 L117.360106,16.4737913 L118.838928,16.6560878 L120.48544,12.5333805 L125.81411,13.0148304 L126.261671,14.2809737 C126.755975,15.6616366 127.419722,16.6508293 128.238888,17.2175847 C129.049874,17.7796658 129.97947,18.1308205 131.004888,18.2576101 C131.508541,18.3201285 131.906438,18.3242185 132.221367,18.2692958 L132.411259,18.2359916 L132.411259,17.1264364 L132.179299,17.0738508 C131.218736,16.8547444 130.246488,16.2266392 129.684406,14.6712753 L129.684406,14.6712753 Z" id="Fill-13"></path>
            <path d="M137.662862,17.24341 L137.601512,3.88083664 C137.597422,3.0716034 137.535488,2.45985813 137.413373,2.01229664 C137.283662,1.53610524 137.059297,1.18670345 136.748457,0.97227125 C136.445798,0.764266173 136.037384,0.663769337 135.501596,0.663769337 L132.929578,0.663769337 L132.929578,1.77975164 L133.328644,1.78442591 C134.024526,1.79319017 134.186957,2.11162491 134.240711,2.21679601 C134.406063,2.54282645 134.4902,3.06751341 134.491953,3.77566553 L134.515324,18.6001173 L144.035647,19.8043265 L144.016365,18.0368676 L137.662862,17.24341 Z" id="Fill-15"></path>
            <path d="M149.87463,3.88901661 C149.87463,3.08036766 149.815033,2.46862239 149.694086,2.01930805 C149.564959,1.54194808 149.339426,1.19020916 149.023328,0.974608386 C148.717163,0.76543474 148.2994,0.663769337 147.750173,0.663769337 L145.079996,0.663769337 L145.079996,1.80546013 L145.49659,1.80838155 C146.222271,1.81422439 146.389376,2.1373334 146.444883,2.24425736 C146.615494,2.57437778 146.702552,3.10490758 146.702552,3.82182396 L146.702552,20.2419552 L156.985949,21.5951567 L156.985949,19.770438 L149.87463,18.8951807 L149.87463,3.88901661 Z" id="Fill-17"></path>
            <path d="M169.208526,20.9379542 C168.5775,21.3358515 167.780536,21.4778325 166.839839,21.3603914 L162.762706,20.8526487 L162.762706,12.1263683 L169.333563,12.5978854 L169.333563,10.8502922 L162.762706,10.4553162 L162.762706,2.43543506 L166.59853,2.47984064 C167.61051,2.49152632 168.381765,2.7684769 168.891844,3.30251241 C169.398419,3.83479506 169.655504,4.68375961 169.655504,5.82661897 L169.655504,6.04397259 L170.819397,6.08195105 L170.819397,3.35100797 C170.818813,1.65892172 169.980365,0.764967313 168.395203,0.764967313 L157.533949,0.764967313 L157.533949,1.96567078 L157.904385,1.96917649 C158.78607,1.97735646 158.99758,2.41673797 159.067694,2.56164039 C159.26752,2.98174053 159.369185,3.64899278 159.369185,4.54528432 L159.369185,22.0597793 L168.644692,23.3235854 C169.349339,23.4188237 169.882206,23.3066412 170.229855,22.9876222 C170.572829,22.6738617 170.85796,22.1725461 171.102775,21.4556297 L171.956414,18.9899516 L170.87432,18.4325447 L170.810049,18.6031556 C170.382353,19.7524421 169.843059,20.5371354 169.208526,20.9379542" id="Fill-19"></path>
            <path d="M188.312975,0.764792028 L183.057925,11.9024122 L179.637527,4.77122691 C179.128616,3.6558289 178.506938,2.69994039 177.788853,1.92868561 C177.069015,1.15626226 176.263872,0.764792028 175.395041,0.764792028 L172.604501,0.764792028 L172.604501,1.94679841 L172.748819,1.96783263 C173.227348,2.03560957 174.272632,2.35346003 174.814263,3.0522636 C175.377513,3.77677567 175.905706,4.63684161 176.383066,5.60909007 L180.827713,15.1095467 L180.827713,25.4607208 L184.116648,26.0508475 L184.127165,14.4802729 L184.141772,14.4493059 L190.682246,0.764792028 L188.312975,0.764792028 Z" id="Fill-21"></path>
            <path d="M15.9475219,19.3140539 C15.3994636,20.9740045 14.5972417,22.3032504 13.564812,23.2643975 C12.5014153,24.2524216 11.2446206,24.8244356 9.82890061,24.9658323 L9.52215155,24.9967993 C9.09095001,25.0400363 8.69889549,25.0622391 8.35884225,25.0622391 C8.18530992,25.0622391 8.02521613,25.0563963 7.88557227,25.0452949 L7.18443156,24.957068 L6.91332381,24.8127499 L6.68253166,2.52056523 C6.68311595,2.47557537 8.55983592,2.43233836 8.73161539,2.43525977 C9.06699437,2.44110261 9.39886764,2.4124727 9.73541518,2.43350692 C10.0690413,2.45395686 10.4026674,2.49544102 10.731035,2.5579594 C11.3608931,2.6777376 11.957447,2.86412418 12.5136853,3.1831432 C12.6393063,3.25442584 12.7614216,3.33155132 12.8800313,3.41335107 C12.9407968,3.45483523 13.0003938,3.49748795 13.0594064,3.54130925 C13.0921263,3.56643346 13.1972974,3.67861597 13.2346916,3.67861597 C14.2969198,4.54335618 15.1394572,5.77268956 15.7406854,7.33272765 C16.3384078,8.88458576 16.6615168,10.7291701 16.7018324,12.8162323 C16.7427323,14.9401044 16.4891531,17.6745532 15.9475219,19.3140539 M17.7231607,3.86149684 C15.7219883,1.80949169 12.7187689,0.732072128 8.79588663,0.659036637 L0.170687298,0.49718999 L0.175945853,1.87493149 L0.554561838,1.87902148 C1.91769624,1.89070716 2.25015379,2.57840934 2.35824632,2.80452722 C2.65272542,3.41276678 2.80639209,4.37040814 2.81398778,5.64998994 L2.94369881,27.4998717 L9.887329,26.722774 C12.3395686,26.4487449 14.4307208,25.6839172 16.1023571,24.4504939 C17.7342621,23.2462847 18.9589212,21.6599538 19.7441988,19.7364911 C20.5166222,17.8434112 20.8794625,14.8501247 20.822787,12.4691677 C20.7351444,8.7776618 19.6927819,5.88195066 17.7231607,3.86149684" id="Fill-24"></path>
            <path d="M52.7893696,26.7434577 C52.5223519,26.0750369 52.2547498,25.3844133 52.2430641,25.3733119 L52.20976,25.3733119 C52.1986586,25.3844133 51.9316408,26.0639355 51.6640388,26.7434577 L51.1323404,28.1317163 C51.0721591,28.289473 51.1884317,28.4594996 51.3572897,28.4594996 L53.0867701,28.4594996 C53.2556282,28.4594996 53.3719007,28.2906415 53.312888,28.1328849 L52.7893696,26.7434577 Z M50.4130869,30.0189534 L49.9404012,31.2669839 C49.9047599,31.3610536 49.8147801,31.4229877 49.7142833,31.4229877 L48.6000539,31.4229877 C48.4294429,31.4229877 48.3125862,31.2506239 48.3756888,31.092283 L51.302367,23.7752953 C51.3397612,23.6841471 51.4279881,23.6239658 51.526732,23.6239658 L52.9488791,23.6239658 C53.0476231,23.6239658 53.1364343,23.6841471 53.1726599,23.7752953 L56.0999223,31.092283 C56.163025,31.2506239 56.0467525,31.4229877 55.8755573,31.4229877 L54.7385408,31.4229877 C54.638044,31.4229877 54.5486485,31.3610536 54.5130072,31.2669839 L54.0409058,30.0189534 C54.0052645,29.9248837 53.9152847,29.8629496 53.8153722,29.8629496 L50.6386205,29.8629496 C50.5381236,29.8629496 50.4481439,29.9248837 50.4130869,30.0189534 L50.4130869,30.0189534 Z" id="Fill-27"></path>
            <path d="M64.6679203,27.5234183 C64.6679203,25.930076 63.586995,24.9274448 62.1385552,24.9274448 C60.701801,24.9274448 59.6097743,25.930076 59.6097743,27.5234183 C59.6097743,29.1056592 60.701801,30.1082904 62.1385552,30.1082904 C63.586995,30.1082904 64.6679203,29.1167606 64.6679203,27.5234183 M62.9185742,31.7092284 L62.9185742,32.7305567 C62.9185742,32.8637734 62.8104817,32.9718659 62.6772649,32.9718659 L61.5998454,32.9718659 C61.4666286,32.9718659 61.3585361,32.8637734 61.3585361,32.7305567 L61.3585361,31.7092284 C61.3585361,31.5941244 61.2761521,31.4988861 61.1645538,31.4755148 C59.329318,31.0840446 58.0497362,29.5684121 58.0497362,27.5234183 C58.0497362,25.1167528 59.7879809,23.4679036 62.1385552,23.4679036 C64.4897137,23.4679036 66.2279584,25.1167528 66.2279584,27.5234183 C66.2279584,29.5689963 64.9583094,31.0846288 63.1131407,31.4755148 C63.0009582,31.4988861 62.9185742,31.5941244 62.9185742,31.7092284" id="Fill-29"></path>
            <path d="M76.0791022,28.0246755 C76.0791022,30.320327 74.808869,31.5677732 72.7808195,31.5677732 C70.7311514,31.5677732 69.4720196,30.320327 69.4720196,28.0246755 L69.4720196,23.8651582 C69.4720196,23.7319415 69.5801121,23.623849 69.7133288,23.623849 L70.8018498,23.623849 C70.9344822,23.623849 71.0431591,23.7319415 71.0431591,23.8651582 L71.0431591,27.9802699 C71.0431591,29.4398112 71.6221844,30.108232 72.7925051,30.108232 C73.9622416,30.108232 74.5412669,29.4398112 74.5412669,27.9802699 L74.5412669,23.8651582 C74.5412669,23.7319415 74.6499437,23.623849 74.7825762,23.623849 L75.837793,23.623849 C75.9710097,23.623849 76.0791022,23.7319415 76.0791022,23.8651582 L76.0791022,28.0246755 Z" id="Fill-32"></path>
            <path d="M83.1224697,26.7434577 C82.8548676,26.0750369 82.5872656,25.3844133 82.5755799,25.3733119 L82.54286,25.3733119 C82.5311743,25.3844133 82.2641566,26.0639355 81.9965545,26.7434577 L81.4648562,28.1317163 C81.4046749,28.289473 81.5209474,28.4594996 81.6903898,28.4594996 L83.4198702,28.4594996 C83.588144,28.4594996 83.7050007,28.2906415 83.6459881,28.1328849 L83.1224697,26.7434577 Z M80.7456027,30.0189534 L80.272917,31.2669839 C80.2378599,31.3610536 80.1478802,31.4229877 80.0473834,31.4229877 L78.9325696,31.4229877 C78.7619587,31.4229877 78.6456862,31.2506239 78.7087889,31.092283 L81.6354671,23.7752953 C81.672277,23.6841471 81.7610881,23.6239658 81.8592478,23.6239658 L83.2813949,23.6239658 C83.3801389,23.6239658 83.4695343,23.6841471 83.5057599,23.7752953 L86.4324381,31.092283 C86.4961251,31.2506239 86.3792683,31.4229877 86.2086574,31.4229877 L85.0716409,31.4229877 C84.971144,31.4229877 84.8811643,31.3610536 84.845523,31.2669839 L84.3734216,30.0189534 C84.3377802,29.9248837 84.2483848,29.8629496 84.147888,29.8629496 L80.9711363,29.8629496 C80.8706394,29.8629496 80.781244,29.9248837 80.7456027,30.0189534 L80.7456027,30.0189534 Z" id="Fill-34"></path>
            <path d="M92.1823178,27.4677945 C93.1399592,27.4677945 93.5968692,27.0108844 93.5968692,26.2530682 C93.5968692,25.4730492 93.1183407,25.0389262 92.1823178,25.0389262 L91.1972151,25.0389262 C91.0645827,25.0389262 90.9559058,25.1470187 90.9559058,25.2802355 L90.9559058,27.2264852 C90.9559058,27.359702 91.0645827,27.4677945 91.1972151,27.4677945 L92.1823178,27.4677945 Z M92.1373279,23.6237905 C94.0087894,23.6237905 95.1458059,24.5709148 95.1458059,26.2308654 C95.1458059,27.8353091 94.0087894,28.8274232 92.1373279,28.8274232 L91.1972151,28.8274232 C91.0645827,28.8274232 90.9559058,28.9349314 90.9559058,29.0681482 L90.9559058,31.1815031 C90.9559058,31.3147199 90.8483976,31.4233967 90.7151809,31.4233967 L89.6488627,31.4233967 C89.5162303,31.4233967 89.4075534,31.3147199 89.4075534,31.1815031 L89.4075534,23.8650998 C89.4075534,23.7318831 89.5162303,23.6237905 89.6488627,23.6237905 L92.1373279,23.6237905 Z" id="Fill-36"></path>
            <path d="M102.03241,30.108232 C103.469748,30.108232 104.561775,29.1167021 104.561775,27.5233599 C104.561775,25.9306019 103.469748,24.9273864 102.03241,24.9273864 C100.595072,24.9273864 99.5036291,25.9306019 99.5036291,27.5233599 C99.5036291,29.1056008 100.595072,30.108232 102.03241,30.108232 M102.03241,23.4678451 C104.382984,23.4678451 106.121229,25.1172787 106.121229,27.5233599 C106.121229,29.918924 104.382984,31.5683575 102.03241,31.5683575 C99.6818357,31.5683575 97.943591,29.918924 97.943591,27.5233599 C97.943591,25.1172787 99.6818357,23.4678451 102.03241,23.4678451" id="Fill-38"></path>
            <path d="M111.036868,26.2087795 L111.00298,26.2087795 C111.00298,26.2198809 111.025182,27.1559037 111.025182,28.1474335 L111.025182,31.18162 C111.025182,31.3148367 110.917674,31.4229292 110.784457,31.4229292 L109.718139,31.4229292 C109.585507,31.4229292 109.47683,31.3148367 109.47683,31.18162 L109.47683,23.8652166 C109.47683,23.7319999 109.585507,23.6239074 109.718139,23.6239074 L110.92527,23.6239074 C111.002395,23.6239074 111.074846,23.6607173 111.120421,23.7232356 L114.780375,28.7603474 L114.813679,28.7603474 C114.813679,28.749246 114.791477,27.7793347 114.791477,26.9216059 L114.791477,23.8652166 C114.791477,23.7319999 114.898985,23.6239074 115.032786,23.6239074 L116.099104,23.6239074 C116.232321,23.6239074 116.340413,23.7319999 116.340413,23.8652166 L116.340413,31.18162 C116.340413,31.3148367 116.232321,31.4229292 116.099104,31.4229292 L114.893726,31.4229292 C114.815432,31.4229292 114.742397,31.3855351 114.697407,31.3218481 L111.036868,26.2087795 Z" id="Fill-40"></path>
            <path d="M120.617079,23.6237321 L121.682813,23.6237321 C121.816614,23.6237321 121.924123,23.7318246 121.924123,23.8650414 L121.924123,31.182029 C121.924123,31.3152457 121.816614,31.4233382 121.682813,31.4233382 L120.617079,31.4233382 C120.483278,31.4233382 120.37577,31.3152457 120.37577,31.182029 L120.37577,23.8650414 C120.37577,23.7318246 120.483278,23.6237321 120.617079,23.6237321" id="Fill-42"></path>
            <path d="M133.059347,29.0780226 C133.203081,29.1154167 133.284296,29.2755105 133.218857,29.4093115 C132.564459,30.7590074 131.218269,31.5682406 129.635443,31.5682406 C127.328106,31.5682406 125.601547,29.9415942 125.601547,27.5016245 C125.601547,25.1060604 127.328106,23.4677283 129.635443,23.4677283 C131.30299,23.4677283 132.533492,24.3055914 133.114854,25.399371 C133.188474,25.5378462 133.11836,25.7090414 132.96703,25.7505256 L131.877341,26.0502632 C131.77626,26.0783089 131.672257,26.0356561 131.612076,25.9497664 C131.235797,25.4057981 130.58023,24.9272695 129.568251,24.9272695 C128.130912,24.9272695 127.161585,25.9521035 127.161585,27.5121416 C127.161585,29.1054839 128.186419,30.1081151 129.557149,30.1081151 C130.578478,30.1081151 131.322271,29.6120581 131.719,28.9190973 C131.775091,28.8221062 131.884352,28.7695206 131.993029,28.7981506 L133.059347,29.0780226 Z" id="Fill-44"></path>
            <path d="M137.556172,29.1025625 C137.67595,29.0698426 137.805077,29.1329452 137.843055,29.2503863 C138.049307,29.881413 138.687345,30.208612 139.55267,30.208612 C140.399881,30.208612 140.9234,29.8855029 140.9234,29.2392849 C140.9234,28.3143635 139.876363,28.3254649 138.907036,28.0917513 C137.848314,27.8469363 136.522573,27.3900263 136.522573,25.7633798 C136.522573,24.2477473 137.659006,23.4677283 139.374463,23.4677283 C140.81706,23.4677283 141.886884,24.026888 142.354311,25.2275915 C142.405144,25.3584711 142.32276,25.5039578 142.187206,25.5395991 L141.1799,25.8042797 C141.064212,25.8352468 140.93567,25.7844141 140.887174,25.675153 C140.649955,25.1358589 140.153314,24.8384584 139.341743,24.8384584 C138.48343,24.8384584 138.10423,25.1720845 138.10423,25.71839 C138.10423,26.498409 138.929239,26.6433114 140.021265,26.8665079 C141.1799,27.0891201 142.494539,27.5343444 142.494539,29.2392849 C142.494539,30.7882216 141.402513,31.5682406 139.55267,31.5682406 C138.278347,31.5682406 136.832244,31.1937147 136.371828,29.6722393 C136.332681,29.5448654 136.413896,29.4116487 136.542439,29.3771759 L137.556172,29.1025625 Z" id="Fill-46"></path>
        </g>
    </g>
</svg>