<?xml version="1.0" encoding="UTF-8" standalone="no"?>
<svg width="36px" height="30px" viewBox="0 0 36 30" version="1.1" xmlns="http://www.w3.org/2000/svg" xmlns:xlink="http://www.w3.org/1999/xlink">
    <!-- Generator: Sketch 47.1 (45422) - http://www.bohemiancoding.com/sketch -->
    <title>Shape</title>
    <desc>Created with Sketch.</desc>
    <defs></defs>
    <g id="Welcome" stroke="none" stroke-width="1" fill="none" fill-rule="evenodd">
        <g id="landing" transform="translate(-867.000000, -29608.000000)" fill="#FFFFFF">
            <path d="M890.333225,29627.4836 C889.004261,29627.4836 887.887531,29626.4156 887.887531,29625.0987 C887.887531,29623.7819 889.004261,29622.6786 890.333225,29622.6786 C891.662189,29622.6786 892.740028,29623.7819 892.740028,29625.0987 C892.740028,29626.4156 891.662189,29627.4836 890.333225,29627.4836 M890.897702,29632.1124 C889.659854,29633.3378 887.750856,29633.9335 885.061815,29633.9335 C885.056259,29633.9335 885.049592,29633.9324 885.042925,29633.9324 C885.037369,29633.9324 885.030702,29633.9335 885.024035,29633.9335 C882.334994,29633.9335 880.427108,29633.3378 879.190371,29632.1124 C878.81035,29631.7358 878.81035,29631.1269 879.190371,29630.7515 C879.569282,29630.376 880.183761,29630.376 880.563782,29630.7515 C881.417164,29631.5971 882.876136,29632.0089 885.024035,29632.0089 C885.030702,29632.0089 885.037369,29632.01 885.042925,29632.01 C885.049592,29632.01 885.056259,29632.0089 885.061815,29632.0089 C887.209715,29632.0089 888.669797,29631.5971 889.52429,29630.7515 C889.904312,29630.3749 890.518791,29630.376 890.897702,29630.7515 C891.276612,29631.128 891.276612,29631.7369 890.897702,29632.1124 M877.348044,29625.0987 C877.348044,29623.783 878.462552,29622.6786 879.790405,29622.6786 C881.119369,29622.6786 882.197208,29623.783 882.197208,29625.0987 C882.197208,29626.4156 881.119369,29627.4836 879.790405,29627.4836 C878.462552,29627.4836 877.348044,29626.4156 877.348044,29625.0987 M896.893597,29609.9065 C897.793648,29609.9065 898.525912,29610.6321 898.525912,29611.5228 C898.525912,29612.4147 897.793648,29613.1403 896.893597,29613.1403 C895.993546,29613.1403 895.261282,29612.4147 895.261282,29611.5228 C895.261282,29610.6321 895.993546,29609.9065 896.893597,29609.9065 M902.822822,29622.4793 C902.822822,29620.144 900.906047,29618.2447 898.549246,29618.2447 C897.529189,29618.2447 896.592469,29618.6014 895.856872,29619.1949 C893.251168,29617.572 889.944314,29616.5942 886.399669,29616.3872 L888.248662,29610.5946 L893.330062,29611.7805 C893.463403,29613.6137 895.010157,29615.0649 896.893597,29615.0649 C898.863709,29615.0649 900.467133,29613.4761 900.467133,29611.5228 C900.467133,29609.5707 898.863709,29607.9819 896.893597,29607.9819 C895.515741,29607.9819 894.317895,29608.7592 893.721195,29609.8944 L887.816416,29608.517 C887.321943,29608.4014 886.821915,29608.6832 886.668573,29609.1633 L884.372887,29616.3531 C880.553782,29616.4456 876.963578,29617.4266 874.166753,29619.1443 C873.441156,29618.5816 872.528882,29618.2447 871.538826,29618.2447 C869.182026,29618.2447 867.265251,29620.144 867.265251,29622.4793 C867.265251,29623.9228 867.998626,29625.1989 869.115356,29625.963 C869.068686,29626.2988 869.04424,29626.6369 869.04424,29626.9793 C869.04424,29629.8982 870.75656,29632.6133 873.865625,29634.6238 C876.845794,29636.5518 880.790462,29637.6132 884.97181,29637.6132 C889.153158,29637.6132 893.097826,29636.5518 896.077995,29634.6238 C899.18706,29632.6133 900.89938,29629.8982 900.89938,29626.9793 C900.89938,29626.6677 900.878267,29626.3583 900.839376,29626.0511 C902.030555,29625.2991 902.822822,29623.9789 902.822822,29622.4793" id="Shape"></path>
        </g>
    </g>
</svg>