<?xml version="1.0" encoding="UTF-8" standalone="no"?>
<svg width="32px" height="27px" viewBox="0 0 32 27" version="1.1" xmlns="http://www.w3.org/2000/svg" xmlns:xlink="http://www.w3.org/1999/xlink">
    <!-- Generator: Sketch 47.1 (45422) - http://www.bohemiancoding.com/sketch -->
    <title>Shape</title>
    <desc>Created with Sketch.</desc>
    <defs></defs>
    <g id="Welcome" stroke="none" stroke-width="1" fill="none" fill-rule="evenodd">
        <g id="landing" transform="translate(-721.000000, -29625.000000)" fill="#FFFFFF">
            <g id="Group-35-Copy" transform="translate(629.500000, 29604.555074)">
                <g id="twitter-copy-2" transform="translate(74.220009, 0.000000)">
                    <path d="M45.177137,24.93082 C46.4942106,24.0996715 47.5048184,22.7817625 47.9791108,21.2118154 C46.7459505,21.9833213 45.3832718,22.5412681 43.929383,22.8433291 C42.7691908,21.5350398 41.1109914,20.719283 39.2758445,20.719283 C35.7551352,20.719283 32.9020837,23.7302722 32.9020837,27.443505 C32.9020837,27.9706686 32.9549856,28.4843645 33.0644377,28.974973 C27.7669559,28.6940756 23.0696366,26.0197784 19.9228886,21.9486901 C19.3738039,22.9452987 19.0600412,24.0996715 19.0600412,25.3310026 C19.0600412,27.6628358 20.1855737,29.7214674 21.8966749,30.9297111 C20.8514073,30.8950799 19.8681626,30.5891711 19.0071394,30.0889428 L19.0071394,30.1716729 C19.0071394,33.4308523 21.2034782,36.1494004 24.1240251,36.7650659 C23.5877098,36.9228302 23.0258557,37.0017124 22.4421112,37.0017124 C22.0316658,37.0017124 21.6303414,36.9613093 21.2436106,36.8824272 C22.0535562,39.5528764 24.4086006,41.4999187 27.1996292,41.5518655 C25.0160598,43.3565351 22.2669878,44.4301018 19.2807696,44.4301018 C18.7663447,44.4301018 18.2573925,44.4012425 17.7593854,44.337752 C20.5814254,46.2443912 23.932484,47.358361 27.5334581,47.358361 C39.2630751,47.358361 45.6733199,37.1113778 45.6733199,28.2246306 C45.6733199,27.9321895 45.6696715,27.6416723 45.6569021,27.355003 C46.9028318,26.4064933 47.9864076,25.2213372 48.8383098,23.8726449 C47.6945354,24.4075043 46.4650234,24.7692078 45.177137,24.93082 Z" id="Shape"></path>
                </g>
            </g>
        </g>
    </g>
</svg>