<?xml version="1.0" encoding="UTF-8" standalone="no"?>
<svg width="31px" height="30px" viewBox="0 0 31 30" version="1.1" xmlns="http://www.w3.org/2000/svg" xmlns:xlink="http://www.w3.org/1999/xlink">
    <!-- Generator: Sketch 47.1 (45422) - http://www.bohemiancoding.com/sketch -->
    <title>Shape</title>
    <desc>Created with Sketch.</desc>
    <defs></defs>
    <g id="Welcome" stroke="none" stroke-width="1" fill="none" fill-rule="evenodd">
        <g id="landing" transform="translate(-795.000000, -29622.000000)" fill="#FFFFFF">
            <g id="Group-35-Copy" transform="translate(629.500000, 29604.555074)">
                <g id="linkedin-copy-2" transform="translate(148.351959, 0.000000)">
                    <path d="M18.5059729,27.2504643 L24.2750583,27.2504643 L24.2750583,47.3564659 L18.5059729,47.3564659 L18.5059729,27.2504643 Z M21.2434605,24.7355558 L21.2016934,24.7355558 C19.1133367,24.7355558 17.7593854,23.198562 17.7593854,21.2522086 C17.7593854,19.2660563 19.1533635,17.7593854 21.2834873,17.7593854 C23.4118709,17.7593854 24.7205744,19.2622659 24.7623415,21.246523 C24.7623415,23.1928764 23.4118709,24.7355558 21.2434605,24.7355558 L21.2434605,24.7355558 Z M47.358361,47.358361 L40.8165837,47.358361 L40.8165837,36.9519085 C40.8165837,34.2285299 39.7932889,32.3712501 37.5430845,32.3712501 C35.8219306,32.3712501 34.8647671,33.6239663 34.419251,34.8349886 C34.2521824,35.2670904 34.2782869,35.871654 34.2782869,36.4781127 L34.2782869,47.358361 L27.7974199,47.358361 C27.7974199,47.358361 27.8809542,28.9258065 27.7974199,27.2504643 L34.2782869,27.2504643 L34.2782869,30.4059448 C34.6611523,29.0262512 36.732106,27.0571556 40.0369305,27.0571556 C44.1370708,27.0571556 47.358361,29.9511007 47.358361,36.1767785 L47.358361,47.358361 L47.358361,47.358361 Z" id="Shape"></path>
                </g>
            </g>
        </g>
    </g>
</svg>