<svg width="27px" height="23px" viewBox="0 0 27 23" version="1.1" xmlns="http://www.w3.org/2000/svg" xmlns:xlink="http://www.w3.org/1999/xlink">
    <g id="Welcome" stroke="none" stroke-width="1" fill="none" fill-rule="evenodd">
        <path d="M23.0855999,3.81043491 C24.1801614,3.11970427 25.0200327,2.02444851 25.4141961,0.719735079 C24.3893712,1.3608994 23.2569094,1.82458432 22.0486469,2.07561374 C21.0844625,0.98835255 19.7064066,0.310413219 18.1812973,0.310413219 C15.255392,0.310413219 12.8843474,2.81271287 12.8843474,5.89861596 C12.8843474,6.33671827 12.9283118,6.76362818 13.0192726,7.17135113 C8.6167704,6.93790975 4.71303654,4.71541996 2.09791386,1.33211896 C1.6415939,2.16035616 1.38083964,3.11970427 1.38083964,4.14300892 C1.38083964,6.08089211 2.31621975,7.79172957 3.73824009,8.79584726 C2.86956455,8.76706682 2.05243346,8.51283957 1.33687526,8.09712205 L1.33687526,8.16587533 C1.33687526,10.8744348 3.16215509,13.1336996 5.58929214,13.645352 C5.14358427,13.7764629 4.67665222,13.8420183 4.19152802,13.8420183 C3.85042506,13.8420183 3.51690217,13.8084411 3.19550738,13.7428857 C3.86861722,15.9621776 5.82579019,17.5802781 8.14529031,17.6234488 C6.33062257,19.1232297 4.04599075,20.0154234 1.56427723,20.0154234 C1.13676152,20.0154234 0.713793855,19.9914397 0.299922266,19.9386756 C2.64519461,21.5231989 5.43011076,22.4489698 8.42272071,22.4489698 C18.1706853,22.4489698 23.4979555,13.9331564 23.4979555,6.54777485 C23.4979555,6.30474 23.4949234,6.06330406 23.4843113,5.82506594 C24.5197483,5.03680158 25.4202601,4.05187085 26.1282383,2.93103247 C25.177698,3.37553043 24.1559052,3.67612617 23.0855999,3.81043491 Z" id="Shape" fill="#002053"></path>
    </g>
</svg>