<?xml version="1.0" encoding="UTF-8" standalone="no"?>
<svg width="23px" height="23px" viewBox="0 0 23 23" version="1.1" xmlns="http://www.w3.org/2000/svg" xmlns:xlink="http://www.w3.org/1999/xlink">
    <!-- Generator: Sketch 47.1 (45422) - http://www.bohemiancoding.com/sketch -->
    <title>Shape</title>
    <desc>Created with Sketch.</desc>
    <defs></defs>
    <g id="Welcome" stroke="none" stroke-width="1" fill="none" fill-rule="evenodd">
        <g id="landing" transform="translate(-1417.000000, -29655.000000)" fill="#002053">
            <g id="Group-35" transform="translate(1354.500000, 29644.055074)">
                <g id="instagram-copy" transform="translate(52.581784, 0.788714)">
                    <path d="M21.5650645,12.7253828 C24.4441416,12.7253828 24.7851401,12.73634 25.9221158,12.7882152 C26.973403,12.8361956 27.5443305,13.0118524 27.9243211,13.1594743 C28.4275797,13.3550766 28.7868116,13.5887721 29.1641057,13.9660662 C29.5413997,14.3433603 29.7750952,14.7025922 29.9706547,15.2058507 C30.1183194,15.5858413 30.2939763,16.1567688 30.3419566,17.2080133 C30.3938319,18.3450317 30.404789,18.6860303 30.404789,21.5651073 C30.404789,24.4441844 30.3938319,24.7851829 30.3419566,25.9221586 C30.2939763,26.9734458 30.1183194,27.5443733 29.9706547,27.9243639 C29.7750952,28.4276225 29.5413997,28.7868544 29.1641057,29.1641485 C28.7868116,29.5414425 28.4275797,29.775138 27.9243211,29.9706975 C27.5443305,30.1183622 26.973403,30.2940191 25.9221158,30.3419994 C24.7853113,30.3938747 24.4443128,30.4048318 21.5650645,30.4048318 C18.6858162,30.4048318 18.3448177,30.3938747 17.2080133,30.3419994 C16.156726,30.2940191 15.5857985,30.1183622 15.2058507,29.9706975 C14.7025494,29.775138 14.3433175,29.5414425 13.9660234,29.1641485 C13.5887293,28.7868544 13.3550338,28.4276225 13.1594743,27.9243639 C13.0118096,27.5443733 12.8361528,26.9734458 12.7881724,25.9222014 C12.7362972,24.7851829 12.72534,24.4441844 12.72534,21.5651073 C12.72534,18.6860303 12.7362972,18.3450317 12.7881724,17.2080561 C12.8361528,16.1567688 13.0118096,15.5858413 13.1594743,15.2058507 C13.3550338,14.7025922 13.5887293,14.3433603 13.9660234,13.9660662 C14.3433175,13.5887721 14.7025494,13.3550766 15.2058507,13.1594743 C15.5857985,13.0118524 16.156726,12.8361956 17.2079705,12.7882152 C18.3449889,12.73634 18.6859875,12.7253828 21.5650645,12.7253828 M21.5650645,10.782543 C24.4934488,10.782543 24.8606417,10.7949554 26.0106718,10.8474298 C27.1583906,10.8998187 27.9421693,11.082067 28.6280613,11.3486339 C29.3371088,11.6241891 29.9384253,11.9928801 30.5378585,12.5923134 C31.1372917,13.1917466 31.5059827,13.793063 31.7815379,14.5021106 C32.0481049,15.1880025 32.2303531,15.9717813 32.282742,17.1195 C32.3352165,18.2695301 32.3476289,18.6367231 32.3476289,21.5651073 C32.3476289,24.4934916 32.3352165,24.8606845 32.282742,26.0107146 C32.2303531,27.1584334 32.0481049,27.9422121 31.7815379,28.6281041 C31.5059827,29.3371516 31.1372917,29.9384681 30.5378585,30.5379013 C29.9384253,31.1373345 29.3371088,31.5060255 28.6280613,31.7815807 C27.9421693,32.0481477 27.1583906,32.2303959 26.0106718,32.2827848 C24.8606417,32.3352593 24.4934488,32.3476289 21.5650645,32.3476289 C18.6366803,32.3476289 18.2695301,32.3352593 17.1194572,32.2827848 C15.9717385,32.2303959 15.1879597,32.0481477 14.5020678,31.7815807 C13.7930202,31.5060255 13.1917038,31.1373345 12.5922706,30.5379013 C11.9928373,29.9384681 11.6241463,29.3371088 11.3485911,28.6281041 C11.0820242,27.9422121 10.8997759,27.1584334 10.847387,26.0107146 C10.7949126,24.8606845 10.782543,24.4934916 10.782543,21.5651073 C10.782543,18.6367231 10.7949126,18.2695301 10.847387,17.1195 C10.8997759,15.9717813 11.0820242,15.1880025 11.3485911,14.5021106 C11.6241463,13.793063 11.9928373,13.1917466 12.5922706,12.5923134 C13.1917038,11.9928801 13.7930202,11.6241891 14.5020678,11.3486339 C15.1879597,11.082067 15.9717385,10.8998187 17.1194572,10.8474298 C18.2695301,10.7949554 18.6366803,10.782543 21.5650645,10.782543 Z M21.5864799,16.0454508 C18.5262676,16.0454508 16.0454508,18.5262676 16.0454508,21.5864799 C16.0454508,24.6466921 18.5262676,27.1275089 21.5864799,27.1275089 C24.6466921,27.1275089 27.1275089,24.6466921 27.1275089,21.5864799 C27.1275089,18.5262676 24.6466921,16.0454508 21.5864799,16.0454508 Z M21.5864799,25.1832979 C19.600036,25.1832979 17.9896618,23.5729237 17.9896618,21.5864799 C17.9896618,19.600036 19.600036,17.9896618 21.5864799,17.9896618 C23.5729237,17.9896618 25.1832979,19.600036 25.1832979,21.5864799 C25.1832979,23.5729237 23.5729237,25.1832979 21.5864799,25.1832979 Z M28.5822964,15.7887024 C28.5822964,15.0797631 28.0076208,14.5050876 27.2986816,14.5050876 C26.5897423,14.5050876 26.0150243,15.0797631 26.0150243,15.7887024 C26.0150243,16.4976416 26.5897423,17.0723597 27.2986816,17.0723597 C28.0076208,17.0723597 28.5822964,16.4976416 28.5822964,15.7887024 Z" id="Shape"></path>
                </g>
            </g>
        </g>
    </g>
</svg>